<svg width="16" height="17" viewBox="0 0 16 17" fill="none" xmlns="http://www.w3.org/2000/svg">
<path d="M15.9918 15.8827L14.8976 9.67766H15.2671C15.5644 9.67766 15.8039 9.44213 15.8039 9.14975V5.25127C15.8039 4.95888 15.5644 4.72335 15.2671 4.72335H10.1884V1.02792C10.1884 0.735533 9.94891 0.5 9.65162 0.5H6.34839C6.0511 0.5 5.81162 0.735533 5.81162 1.02792V4.72335H0.732904C0.435613 4.72335 0.196129 4.95888 0.196129 5.25127V9.14975C0.196129 9.44213 0.435613 9.67766 0.732904 9.67766H1.10245L0.0082581 15.8827C0.00206455 15.9132 0 15.9437 0 15.9721C0 16.2645 0.239484 16.5 0.536775 16.5H15.4632C15.4942 16.5 15.5252 16.498 15.5541 16.4919C15.8472 16.4431 16.0434 16.169 15.9918 15.8827ZM1.64129 6.14467H7.25678V1.92132H8.74323V6.14467H14.3587V8.25634H1.64129V6.14467ZM11.3032 15.0787V11.9112C11.3032 11.8218 11.2289 11.7487 11.1381 11.7487H10.1471C10.0563 11.7487 9.98195 11.8218 9.98195 11.9112V15.0787H6.01807V11.9112C6.01807 11.8218 5.94375 11.7487 5.85291 11.7487H4.86194C4.7711 11.7487 4.69678 11.8218 4.69678 11.9112V15.0787H1.61652L2.54762 9.79949H13.4503L14.3814 15.0787H11.3032Z" fill="#555555"/>
</svg>
