<svg width="18" height="21" viewBox="0 0 18 21" fill="none" xmlns="http://www.w3.org/2000/svg">
<path d="M10.7049 16.75H11.6635C11.7907 16.75 11.9126 16.7006 12.0025 16.6127C12.0924 16.5248 12.1429 16.4056 12.1429 16.2812V7.84375C12.1429 7.71943 12.0924 7.6002 12.0025 7.51229C11.9126 7.42439 11.7907 7.375 11.6635 7.375H10.7049C10.5778 7.375 10.4558 7.42439 10.366 7.51229C10.2761 7.6002 10.2256 7.71943 10.2256 7.84375V16.2812C10.2256 16.4056 10.2761 16.5248 10.366 16.6127C10.4558 16.7006 10.5778 16.75 10.7049 16.75ZM17.2556 3.625H13.9639L12.6058 1.41016C12.4354 1.13243 12.1943 0.902614 11.906 0.743108C11.6177 0.583603 11.2921 0.499846 10.9609 0.5H6.93381C6.60274 0.499981 6.2773 0.583802 5.98918 0.743301C5.70107 0.9028 5.4601 1.13254 5.28973 1.41016L3.93085 3.625H0.639098C0.469598 3.625 0.307041 3.69085 0.187187 3.80806C0.0673333 3.92527 0 4.08424 0 4.25L0 4.875C0 5.04076 0.0673333 5.19973 0.187187 5.31694C0.307041 5.43415 0.469598 5.5 0.639098 5.5H1.2782V18.625C1.2782 19.1223 1.4802 19.5992 1.83976 19.9508C2.19932 20.3025 2.68699 20.5 3.19549 20.5H14.6992C15.2077 20.5 15.6954 20.3025 16.055 19.9508C16.4145 19.5992 16.6165 19.1223 16.6165 18.625V5.5H17.2556C17.4251 5.5 17.5877 5.43415 17.7076 5.31694C17.8274 5.19973 17.8947 5.04076 17.8947 4.875V4.25C17.8947 4.08424 17.8274 3.92527 17.7076 3.80806C17.5877 3.69085 17.4251 3.625 17.2556 3.625ZM6.86391 2.48867C6.88527 2.4539 6.91549 2.42515 6.95162 2.40523C6.98775 2.3853 7.02854 2.37489 7.07002 2.375H10.8247C10.8661 2.37495 10.9068 2.3854 10.9429 2.40532C10.9789 2.42524 11.0091 2.45396 11.0304 2.48867L11.7278 3.625H6.16689L6.86391 2.48867ZM14.6992 18.625H3.19549V5.5H14.6992V18.625ZM6.2312 16.75H7.18985C7.31697 16.75 7.43889 16.7006 7.52878 16.6127C7.61867 16.5248 7.66917 16.4056 7.66917 16.2812V7.84375C7.66917 7.71943 7.61867 7.6002 7.52878 7.51229C7.43889 7.42439 7.31697 7.375 7.18985 7.375H6.2312C6.10408 7.375 5.98216 7.42439 5.89227 7.51229C5.80238 7.6002 5.75188 7.71943 5.75188 7.84375V16.2812C5.75188 16.4056 5.80238 16.5248 5.89227 16.6127C5.98216 16.7006 6.10408 16.75 6.2312 16.75Z" fill="#555555"/>
</svg>
