<svg width="18" height="19" viewBox="0 0 18 19" fill="none" xmlns="http://www.w3.org/2000/svg">
<path d="M5.14799 13.5161L6.73289 13.0589L16.2756 3.40248C16.3508 3.32535 16.3928 3.22171 16.3922 3.11395C16.3917 3.00618 16.3489 2.90294 16.2729 2.82652L15.7014 2.24875C15.6644 2.21081 15.6203 2.1806 15.5716 2.15989C15.5229 2.13918 15.4705 2.12838 15.4175 2.12813C15.3646 2.12788 15.3121 2.13818 15.2632 2.15842C15.2143 2.17867 15.1699 2.20846 15.1326 2.24605L5.61509 11.8773L5.14709 13.5152L5.14799 13.5161ZM16.8327 1.10402L17.4042 1.68268C18.1926 2.48094 18.1998 3.76876 17.4186 4.55892L7.58519 14.5105L4.19759 15.4861C3.99077 15.544 3.76943 15.5174 3.58214 15.4123C3.39485 15.3072 3.25691 15.1321 3.1986 14.9254C3.1552 14.7768 3.15458 14.619 3.19679 14.47L4.18229 11.0142L13.9896 1.08872C14.1761 0.900952 14.3981 0.752194 14.6427 0.651122C14.8872 0.550049 15.1495 0.498685 15.4141 0.500026C15.6788 0.501366 15.9405 0.555384 16.1841 0.658928C16.4276 0.762473 16.6481 0.913472 16.8327 1.10312V1.10402ZM6.46559 2.14166C6.91199 2.14166 7.27379 2.50794 7.27379 2.95971C7.2745 3.0665 7.25415 3.17239 7.21391 3.27132C7.17367 3.37024 7.11432 3.46027 7.03926 3.53624C6.9642 3.61222 6.8749 3.67266 6.77646 3.7141C6.67803 3.75554 6.57239 3.77717 6.46559 3.77776H3.2328C2.34 3.77776 1.6164 4.51032 1.6164 5.41297V15.2278C1.6164 16.1313 2.34 16.8639 3.2328 16.8639H12.9312C13.824 16.8639 14.5485 16.1313 14.5485 15.2278V11.9565C14.5485 11.5047 14.9103 11.1384 15.3567 11.1384C15.8031 11.1384 16.1649 11.5047 16.1649 11.9574V15.2278C16.1649 17.0349 14.7168 18.5 12.9312 18.5H3.2328C1.4472 18.5 0 17.0349 0 15.2278V5.41297C0 3.60677 1.4472 2.14166 3.2328 2.14166H6.46559Z" fill="#555555"/>
</svg>
